<?xml version="1.0" standalone="no"?>
<!DOCTYPE svg PUBLIC "-//W3C//DTD SVG 20010904//EN"
 "http://www.w3.org/TR/2001/REC-SVG-20010904/DTD/svg10.dtd">
<svg version="1.0" xmlns="http://www.w3.org/2000/svg"
 width="200.000000pt" height="200.000000pt" viewBox="0 0 200.000000 200.000000"
 preserveAspectRatio="xMidYMid meet">
<metadata>
Created by potrace 1.11, written by Peter Selinger 2001-2013
</metadata>
<g transform="translate(0.000000,200.000000) scale(0.100000,-0.100000)"
fill="#000000" stroke="none">
<path d="M875 1889 c-232 -46 -438 -218 -525 -439 -50 -127 -61 -306 -25 -440
50 -191 192 -367 366 -456 208 -105 483 -90 680 37 273 177 393 517 291 822
-39 116 -83 188 -167 272 -100 100 -163 140 -295 185 -71 24 -248 34 -325 19z
m330 -57 c179 -62 305 -172 389 -337 126 -252 87 -526 -103 -715 -159 -158
-357 -215 -583 -170 -110 23 -195 68 -259 138 -40 44 -99 139 -99 160 0 2 18
-19 40 -46 191 -243 566 -268 780 -53 134 134 185 314 145 516 -70 361 -342
535 -721 461 -82 -16 -205 -83 -289 -155 l-40 -35 30 34 c184 209 460 288 710
202z m-93 -83 c38 -11 91 -31 118 -44 57 -29 145 -116 179 -177 l24 -43 -49
48 c-215 211 -525 228 -734 40 -69 -62 -125 -149 -152 -238 -18 -55 -22 -93
-21 -180 3 -298 131 -492 373 -566 61 -19 98 -23 200 -23 110 0 135 4 203 27
42 15 95 38 117 52 22 14 42 25 45 25 31 0 -117 -89 -195 -117 -222 -81 -478
-30 -664 135 -51 45 -131 152 -159 215 -75 164 -80 363 -14 507 56 122 166
233 294 298 119 61 301 78 435 41z"/>
<path d="M643 445 c-82 -35 -104 -84 -107 -231 l-2 -114 36 0 35 0 -3 45 -4
45 116 0 116 0 0 -45 c0 -45 0 -45 34 -45 l34 0 0 167 c-1 94 -5 174 -11 181
-14 17 -202 16 -244 -3z m185 -119 l-3 -71 -110 -1 c-106 -1 -111 0 -113 20
-2 27 18 78 38 93 23 19 64 28 130 29 l61 0 -3 -70z"/>
<path d="M1010 363 c-35 -14 -49 -47 -50 -118 0 -91 6 -108 40 -128 21 -13 53
-17 129 -17 l101 0 0 29 c0 16 -6 31 -12 33 -7 3 -50 4 -96 3 -46 0 -86 3 -89
9 -12 18 -11 116 1 123 6 4 49 8 96 9 47 1 88 2 93 3 4 0 7 15 7 31 l0 30
-102 -1 c-57 0 -110 -3 -118 -6z"/>
<path d="M1302 353 c-11 -10 -23 -32 -27 -50 -5 -26 -2 -37 19 -58 25 -25 45
-29 132 -26 30 1 43 -3 48 -15 12 -31 -10 -40 -103 -39 -67 0 -91 -3 -92 -12
-5 -50 -8 -48 81 -51 47 -2 100 0 118 3 53 10 82 75 56 127 -20 38 -44 48
-121 51 -95 3 -77 22 20 22 l77 -1 0 33 0 33 -94 0 c-75 0 -98 -4 -114 -17z"/>
</g>
</svg>
